<?xml version="1.0" standalone="no"?>
<!DOCTYPE svg PUBLIC "-//W3C//DTD SVG 20010904//EN"
 "http://www.w3.org/TR/2001/REC-SVG-20010904/DTD/svg10.dtd">
<svg version="1.0" xmlns="http://www.w3.org/2000/svg"
 width="162.531691pt" height="162.531691pt" viewBox="0 0 162.531691 162.531691"
 preserveAspectRatio="xMidYMid meet">
<metadata>
Created by potrace 1.12, written by Peter Selinger 2001-2015
</metadata>
<g transform="translate(-46.678597,209.210288) scale(0.100000,-0.100000)"
fill="#000000" stroke="none">
<path d="M1668 1972 l-133 -130 -3 -128 -4 -129 -211 -212 c-154 -154 -218
-213 -235 -213 -31 0 -72 -43 -72 -75 0 -33 42 -75 75 -75 32 0 75 41 75 72 0
17 59 81 213 235 l212 211 129 4 128 3 130 133 c123 128 129 135 115 155 -14
21 -21 22 -132 19 l-117 -4 4 117 c3 111 2 118 -19 132 -20 14 -27 8 -155
-115z"/>
<path d="M925 1681 c-135 -41 -231 -102 -315 -202 -98 -118 -143 -243 -143
-394 0 -175 57 -311 182 -436 125 -125 261 -182 436 -182 153 0 278 46 398
147 135 115 207 264 215 448 5 120 -13 199 -70 312 l-30 59 -54 -54 -54 -54
27 -65 c31 -77 41 -197 23 -283 -38 -183 -191 -325 -388 -359 -140 -24 -298
29 -402 132 -68 68 -106 142 -128 248 -14 69 -15 91 -4 154 34 197 176 350
359 388 86 18 206 8 283 -23 l65 -27 54 54 54 54 -59 30 c-145 73 -314 93
-449 53z"/>
<path d="M973 1410 c-90 -32 -167 -102 -206 -189 -33 -71 -31 -207 5 -283 32
-70 96 -133 168 -167 75 -35 210 -37 282 -4 109 50 195 169 205 284 6 58 -11
154 -29 165 -5 4 -34 -17 -63 -46 -46 -45 -53 -58 -57 -98 -10 -106 -73 -172
-172 -180 -128 -10 -215 67 -216 192 0 106 71 185 175 194 48 4 57 9 105 57
29 29 50 57 46 63 -9 14 -88 32 -143 32 -26 -1 -72 -9 -100 -20z"/>
</g>
</svg>
